<svg width="80" height="50" viewBox="0 0 80 50" fill="none" xmlns="http://www.w3.org/2000/svg">
<mask id="mask0_75_6" style="mask-type:alpha" maskUnits="userSpaceOnUse" x="0" y="0" width="80" height="50">
<path d="M0 0H80V50H0V0Z" fill="#006D41"/>
</mask>
<g mask="url(#mask0_75_6)">
<path d="M80 40.3061C80 62.5666 62.0914 80.6122 40 80.6122C17.9086 80.6122 0 62.5666 0 40.3061C0 18.0457 17.9086 0 40 0C62.0914 0 80 18.0457 80 40.3061Z" fill="#006D41"/>
</g>
<g clip-path="url(#clip0_75_6)">
<path d="M49.3477 23.5455C49.3477 23.5455 46.6703 21.2036 46.0298 20.564C45.0899 19.6289 44.7138 19.1786 45.0457 18.4182C46.497 15.4581 45.995 11.7833 43.5332 9.3222C40.438 6.22634 35.4184 6.22634 32.3229 9.3222C29.2273 12.4184 29.2273 17.4366 32.3229 20.5333C34.7832 22.9936 38.4591 23.4956 41.4181 22.0446C42.1785 21.7132 42.6299 22.0892 43.5646 23.0296C44.2046 23.6696 46.5454 26.3474 46.5454 26.3474C47.7598 27.5611 48.6942 26.8142 49.2551 26.2541C49.8149 25.6935 50.5621 24.7596 49.3477 23.5455ZM41.1737 18.1726C39.3807 19.9645 36.4749 19.9645 34.6827 18.1726C32.8905 16.3808 32.8905 13.4743 34.6827 11.6824C36.4749 9.8906 39.3807 9.8906 41.1737 11.6824C42.9659 13.4743 42.9659 16.3808 41.1737 18.1726Z" fill="white"/>
</g>
<path d="M34.096 39.748V38.62H35.284V39.34C35.284 39.472 35.284 39.616 35.272 39.748H34.096ZM37.84 38.62V39.748H36.556C36.568 39.628 36.568 39.496 36.568 39.376V38.62H37.84ZM34.528 35.584C35.092 35.104 35.584 34.576 35.92 34.072C36.28 34.576 36.796 35.116 37.372 35.584H34.528ZM39.124 40.84V37.528H36.568V36.76H38.152V36.172C38.464 36.376 38.788 36.568 39.1 36.724C39.292 36.34 39.568 35.812 39.832 35.476C38.584 35.008 37.36 34 36.532 32.848H35.236C34.66 33.772 33.616 34.792 32.452 35.38V35.296H31.36V32.836H30.04V35.296H28.576V36.616H29.956C29.644 38.044 28.996 39.7 28.3 40.648C28.516 40.984 28.816 41.536 28.948 41.92C29.356 41.344 29.728 40.516 30.04 39.616V44.032H31.36V38.932C31.612 39.436 31.852 39.952 31.984 40.3L32.704 39.196C32.524 38.896 31.684 37.612 31.36 37.192V36.616H32.452V36.04C32.596 36.28 32.716 36.532 32.8 36.736C33.136 36.568 33.46 36.376 33.784 36.148V36.76H35.284V37.528H32.86V40.84H35.056C34.72 41.692 33.916 42.472 32.08 43.048C32.296 43.276 32.704 43.816 32.836 44.104C34.6 43.54 35.56 42.688 36.064 41.728C36.796 43.024 37.744 43.636 38.932 44.092C39.088 43.672 39.424 43.204 39.748 42.904C38.596 42.544 37.696 42.088 37 40.84H39.124Z" fill="white"/>
<path d="M43.204 41.332C42.58 41.968 41.476 42.58 40.468 42.952C40.78 43.192 41.308 43.684 41.56 43.96C42.568 43.48 43.78 42.664 44.56 41.848L43.204 41.332ZM49.768 41.104C49.996 41.296 50.188 41.488 50.344 41.644L51.352 40.828C50.716 40.192 49.444 39.304 48.508 38.716L47.572 39.436C47.848 39.616 48.136 39.808 48.424 40.024C47.464 40.036 46.516 40.048 45.604 40.06C46.696 39.412 47.836 38.656 48.784 37.936L47.512 37.252C46.888 37.804 46.048 38.44 45.16 39.028C44.944 38.872 44.692 38.704 44.428 38.536C44.992 38.128 45.64 37.612 46.216 37.096L45.844 36.916H49.816V38.212H51.232V35.728H46.648V34.996H51.076V33.772H46.648V32.836H45.244V33.772H40.9V34.996H45.244V35.728H40.792V38.212H42.148V36.916H44.548C44.212 37.264 43.804 37.636 43.42 37.948C43.252 37.852 43.072 37.768 42.916 37.684L41.968 38.5C42.628 38.836 43.42 39.328 43.996 39.76C43.816 39.868 43.636 39.976 43.456 40.072C42.436 40.084 41.512 40.084 40.756 40.084L40.828 41.356C42.052 41.332 43.588 41.296 45.256 41.248V44.044H46.672V41.2L49.768 41.104ZM47.368 42.016C48.34 42.556 49.612 43.384 50.2 43.924L51.376 43.12C50.692 42.568 49.384 41.788 48.448 41.296L47.368 42.016Z" fill="white"/>
<defs>
<clipPath id="clip0_75_6">
<rect width="20" height="20" fill="white" transform="translate(30 7)"/>
</clipPath>
</defs>
</svg>
