<svg width="80" height="49" viewBox="0 0 80 49" fill="none" xmlns="http://www.w3.org/2000/svg">
<mask id="mask0_27_367" style="mask-type:alpha" maskUnits="userSpaceOnUse" x="0" y="0" width="80" height="50">
<path d="M0 0H80V50H0V0Z" fill="#006D41"/>
</mask>
<g mask="url(#mask0_27_367)">
<path d="M80 40.3061C80 62.5666 62.0914 80.6122 40 80.6122C17.9086 80.6122 0 62.5666 0 40.3061C0 18.0457 17.9086 0 40 0C62.0914 0 80 18.0457 80 40.3061Z" fill="#006D41"/>
</g>
<g clip-path="url(#clip0_27_367)">
<path d="M30.1213 24.9999L47.0919 8.02938L49.2132 10.1507L32.2427 27.1213L30.1213 24.9999Z" fill="white"/>
<path d="M32.1213 8L49.0919 24.9706L46.9706 27.0919L30 10.1213L32.1213 8Z" fill="white"/>
</g>
<path d="M26.236 34.324V34.96H24.388V34.324H26.236ZM24.388 36.604V35.92H26.236V36.604H24.388ZM27.568 37.624V33.292H22.972V44.044H24.388V37.624H27.568ZM30.976 39.94V38.788H29.404V37.864H28.12V38.788H25.06V39.94H27.484C26.776 40.78 25.672 41.584 24.652 42.016C24.94 42.256 25.324 42.724 25.54 43.036C26.44 42.544 27.376 41.764 28.12 40.9V42.46C28.12 42.592 28.072 42.628 27.928 42.628C27.784 42.628 27.34 42.628 26.896 42.616C27.064 42.94 27.256 43.456 27.316 43.792C28.024 43.792 28.54 43.768 28.912 43.576C29.308 43.396 29.404 43.06 29.404 42.484V39.94H30.976ZM29.752 36.628V35.92H31.66V36.628H29.752ZM31.66 34.324V34.96H29.752V34.324H31.66ZM33.1 33.292H28.396V37.648H31.66V42.316C31.66 42.532 31.576 42.604 31.348 42.604C31.108 42.616 30.304 42.628 29.608 42.58C29.8 42.964 30.04 43.636 30.088 44.044C31.192 44.044 31.936 44.008 32.44 43.768C32.932 43.54 33.1 43.132 33.1 42.34V33.292Z" fill="white"/>
<path d="M41.368 34.516L40.324 34.96C40.756 35.572 41.068 36.148 41.428 36.916L42.496 36.448C42.232 35.896 41.704 35.02 41.368 34.516ZM42.976 33.856L41.944 34.336C42.388 34.936 42.712 35.488 43.096 36.244L44.14 35.74C43.876 35.2 43.324 34.348 42.976 33.856ZM38.272 33.556L36.34 33.532C36.436 34 36.484 34.576 36.484 35.152C36.484 36.184 36.376 39.34 36.376 40.948C36.376 42.988 37.636 43.852 39.604 43.852C42.34 43.852 44.044 42.256 44.824 41.104L43.732 39.772C42.856 41.08 41.608 42.232 39.628 42.232C38.692 42.232 37.96 41.836 37.96 40.624C37.96 39.124 38.056 36.448 38.116 35.152C38.14 34.672 38.2 34.06 38.272 33.556Z" fill="white"/>
<path d="M50.68 41.584C50.68 41.284 50.968 41.008 51.424 41.008C52.072 41.008 52.516 41.512 52.588 42.292C52.372 42.316 52.144 42.328 51.892 42.328C51.172 42.328 50.68 42.028 50.68 41.584ZM48.64 33.856L48.688 35.416C48.964 35.38 49.348 35.344 49.672 35.32C50.308 35.284 51.964 35.212 52.576 35.2C51.988 35.716 50.74 36.724 50.068 37.276C49.36 37.864 47.908 39.088 47.056 39.772L48.148 40.9C49.432 39.436 50.632 38.464 52.468 38.464C53.884 38.464 54.964 39.196 54.964 40.276C54.964 41.008 54.628 41.56 53.968 41.908C53.8 40.768 52.9 39.856 51.412 39.856C50.14 39.856 49.264 40.756 49.264 41.728C49.264 42.928 50.524 43.696 52.192 43.696C55.096 43.696 56.536 42.196 56.536 40.3C56.536 38.548 54.988 37.276 52.948 37.276C52.564 37.276 52.204 37.312 51.808 37.408C52.564 36.808 53.824 35.752 54.472 35.296C54.748 35.092 55.036 34.924 55.312 34.744L54.532 33.676C54.388 33.724 54.112 33.76 53.62 33.808C52.936 33.868 50.368 33.916 49.732 33.916C49.396 33.916 48.976 33.904 48.64 33.856Z" fill="white"/>
<defs>
<clipPath id="clip0_27_367">
<rect width="20" height="20" fill="white" transform="translate(30 7)"/>
</clipPath>
</defs>
</svg>
