<svg width="12" height="12" viewBox="0 0 12 12" fill="none" xmlns="http://www.w3.org/2000/svg">
<path d="M10.6157 0.447941C10.5403 0.398511 10.4451 0.390074 10.3623 0.425605L4.42127 2.97736L4.4209 7.53085L10.3623 10.083C10.4451 10.1185 10.5403 10.1101 10.6157 10.0603C10.6912 10.0105 10.7366 9.9266 10.7366 9.83613V0.672425C10.7366 0.58198 10.6919 0.49737 10.6157 0.447941Z" fill="#006D41"/>
<path d="M3.91554 2.97736H1.07447C0.481195 2.97736 0.000375 3.4582 0.000375 4.05145L0 6.45637C0 7.05 0.481195 7.53084 1.07447 7.53084H3.91554V2.97736Z" fill="#006D41"/>
<path d="M11.1475 4.36969V6.39117C11.5137 6.39117 12 5.93853 12 5.38078C12 4.82231 11.5137 4.36969 11.1475 4.36969Z" fill="#FFA300"/>
<path d="M3.46802 8.03326H1.5476L2.33569 11.2134C2.3789 11.4361 2.57372 11.5961 2.80005 11.5961H3.89173C4.04076 11.5961 4.18139 11.5258 4.27076 11.4057C4.36047 11.2863 4.38794 11.1314 4.34547 10.9882L3.46802 8.03326Z" fill="#006D41"/>
</svg>
