<svg width="12" height="12" viewBox="0 0 12 12" fill="none" xmlns="http://www.w3.org/2000/svg">
<path d="M10.782 3.02417H10.3304V5.20496H10.782C11.0317 5.20496 11.2346 5.00244 11.2346 4.75269V3.47679C11.2346 3.22707 11.0317 3.02417 10.782 3.02417Z" fill="#006D41"/>
<path d="M10.782 8.25769H10.3304V10.4385H10.782C11.0317 10.4385 11.2346 10.2356 11.2346 9.98583V8.70994C11.2346 8.46021 11.0317 8.25769 10.782 8.25769Z" fill="#006D41"/>
<path d="M10.782 5.64111H10.3304V7.82151H10.782C11.0317 7.82151 11.2346 7.61899 11.2346 7.36924V6.09336C11.2346 5.84399 11.0317 5.64111 10.782 5.64111Z" fill="#006D41"/>
<path d="M8.61547 2.17603H7.94017V5.8572C7.94017 5.97511 7.87351 6.08205 7.76805 6.13441C7.66258 6.18605 7.5366 6.1736 7.44358 6.10181L6.52511 5.39538L5.60664 6.10181C5.51362 6.1736 5.38801 6.18605 5.28255 6.13441C5.17708 6.08205 5.11007 5.97511 5.11007 5.8572V2.17603H2.24486C2.0515 2.17603 1.87975 2.09838 1.75267 1.97205C1.62597 1.84425 1.54869 1.67285 1.54869 1.47949C1.54869 1.28613 1.62597 1.11438 1.75267 0.98693C1.87975 0.860578 2.0515 0.782953 2.24486 0.782953H8.47996C8.69603 0.782953 8.87108 0.607898 8.87108 0.391477C8.87108 0.175055 8.69603 0 8.47998 0H2.24486C1.83763 0 1.46556 0.166266 1.19896 0.433594C0.931631 0.69982 0.765366 1.07227 0.765366 1.47949V11.0332C0.765366 11.5671 1.19823 12 1.73216 12H8.61547C9.35155 12 9.94776 11.4038 9.94776 10.6684V3.50756C9.94776 2.77221 9.35155 2.17603 8.61547 2.17603Z" fill="#006D41"/>
</svg>
