<?xml version="1.0" encoding="utf-8"?>
<!-- Generator: Adobe Illustrator 25.4.1, SVG Export Plug-In . SVG Version: 6.00 Build 0)  -->
<svg version="1.1" id="レイヤー_1" xmlns="http://www.w3.org/2000/svg" xmlns:xlink="http://www.w3.org/1999/xlink" x="0px"
	 y="0px" viewBox="0 0 12 12" style="enable-background:new 0 0 12 12;" xml:space="preserve">
<style type="text/css">
	.st0{clip-path:url(#SVGID_00000027564018301704519970000015840839389475314560_);}
	.st1{fill:#C4C4C4;}
	.st2{fill:#FFFFFF;filter:url(#Adobe_OpacityMaskFilter);}
	.st3{mask:url(#path-1-inside-1_24_27_00000067233437717119973190000008263347549532260000_);fill:#C4C4C4;}
	.st4{fill:#FFFFFF;filter:url(#Adobe_OpacityMaskFilter_00000070109767692645872120000007119089764890464157_);}
	.st5{mask:url(#path-3-inside-2_24_27_00000098219667374162821810000014359344629120608701_);fill:#C4C4C4;}
	.st6{fill:#FFA300;}
	.st7{fill:#006D41;}
</style>
<g>
	<defs>
		<rect id="SVGID_1_" width="12" height="12"/>
	</defs>
	<clipPath id="SVGID_00000018926682514370823520000011367366704562710151_">
		<use xlink:href="#SVGID_1_"  style="overflow:visible;"/>
	</clipPath>
	<g style="clip-path:url(#SVGID_00000018926682514370823520000011367366704562710151_);">
		<path class="st1" d="M9.8,5.5H4.7v0.4h5.2V5.5z"/>
		<defs>
			<filter id="Adobe_OpacityMaskFilter" filterUnits="userSpaceOnUse" x="3.7" y="4.5" width="7.2" height="2.4">
				<feColorMatrix  type="matrix" values="1 0 0 0 0  0 1 0 0 0  0 0 1 0 0  0 0 0 1 0"/>
			</filter>
		</defs>
		
			<mask maskUnits="userSpaceOnUse" x="3.7" y="4.5" width="7.2" height="2.4" id="path-1-inside-1_24_27_00000067233437717119973190000008263347549532260000_">
			<path class="st2" d="M9.8,5.5H4.7v0.4h5.2V5.5z"/>
		</mask>
		<path class="st3" d="M4.7,5.5v-1h-1v1H4.7z M9.8,5.5h1v-1h-1V5.5z M9.8,5.9v1h1v-1H9.8z M4.7,5.9h-1v1h1V5.9z M4.7,6.5h5.2v-2H4.7
			V6.5z M8.8,5.5v0.4h2V5.5H8.8z M9.8,4.9H4.7v2h5.2V4.9z M5.7,5.9V5.5h-2v0.4H5.7z"/>
		<path class="st1" d="M9.4,7.2H4.2v0.4h5.2V7.2z"/>
		<defs>
			
				<filter id="Adobe_OpacityMaskFilter_00000181765852765955464890000009746499309520687242_" filterUnits="userSpaceOnUse" x="3.2" y="6.2" width="7.2" height="2.4">
				<feColorMatrix  type="matrix" values="1 0 0 0 0  0 1 0 0 0  0 0 1 0 0  0 0 0 1 0"/>
			</filter>
		</defs>
		
			<mask maskUnits="userSpaceOnUse" x="3.2" y="6.2" width="7.2" height="2.4" id="path-3-inside-2_24_27_00000098219667374162821810000014359344629120608701_">
			<path style="fill:#FFFFFF;filter:url(#Adobe_OpacityMaskFilter_00000181765852765955464890000009746499309520687242_);" d="
				M9.4,7.2H4.2v0.4h5.2V7.2z"/>
		</mask>
		<path class="st5" d="M4.2,7.2v-1h-1v1H4.2z M9.4,7.2h1v-1h-1V7.2z M9.4,7.7v1h1v-1H9.4z M4.2,7.7h-1v1h1V7.7z M4.2,8.2h5.2v-2H4.2
			V8.2z M8.4,7.2v0.4h2V7.2H8.4z M9.4,6.7H4.2v2h5.2V6.7z M5.2,7.7V7.2h-2v0.4H5.2z"/>
		<path class="st6" d="M12,0.9V0.6H3.2v0.3c0,0.6,0,1.2,0,1.8c0,0.9,0,1.9-0.2,2.9c-0.2,1-0.4,1.9-0.9,3H1.3c-0.1,0-0.3,0-0.4,0.1
			C0.7,8.6,0.5,8.8,0.3,9C0.1,9.2,0,9.5,0,9.8c0,0,0,0.1,0,0.1c0,0.2,0.1,0.4,0.2,0.6c0.1,0.3,0.4,0.5,0.6,0.7
			c0.3,0.2,0.6,0.2,0.9,0.2l6.6,0c0.3,0,0.5-0.1,0.7-0.1c0.2-0.1,0.3-0.2,0.5-0.3c0.6-0.5,1-1,1.4-1.7c0.5-1,0.8-2,1-3.2
			C12,5,12,3.9,12,2.9C12,2.1,12,1.4,12,0.9z M1.7,10.9L1.7,10.9c-0.1,0-0.3,0-0.4-0.1c-0.2-0.1-0.4-0.2-0.5-0.4
			c-0.1-0.1-0.1-0.2-0.1-0.2c0-0.1-0.1-0.2-0.1-0.3c0,0,0-0.1,0-0.1c0-0.1,0.1-0.3,0.1-0.4c0.1-0.1,0.2-0.2,0.3-0.3
			c0.1-0.1,0.2-0.1,0.4-0.1h6C7.2,9.1,7.2,9.2,7.1,9.3C7.1,9.5,7,9.6,7,9.8c0,0,0,0.1,0,0.1c0,0.2,0,0.4,0.1,0.5
			c0.1,0.1,0.2,0.3,0.3,0.4L1.7,10.9z M11.1,7.1c-0.2,0.7-0.4,1.3-0.7,1.9c-0.3,0.6-0.7,1.1-1.2,1.5c-0.1,0.1-0.2,0.2-0.4,0.2
			c-0.1,0.1-0.2,0.1-0.4,0.1l-0.2,0c-0.2,0-0.3-0.1-0.5-0.2c-0.1-0.1-0.2-0.2-0.2-0.3c-0.1-0.1-0.1-0.2-0.1-0.4c0,0,0-0.1,0-0.1
			c0-0.1,0-0.3,0.1-0.4c0.1-0.1,0.2-0.2,0.3-0.3C7.9,9.1,8,9.1,8.1,9.1c0.1,0,0.3,0,0.4,0.1c0.1,0.1,0.2,0.1,0.2,0.3
			c0,0.1,0,0.1,0,0.2c0,0.1,0,0.1,0,0.2c0,0.1,0,0.1-0.1,0.1C8.6,10,8.5,10,8.5,10c-0.1,0-0.1,0-0.2,0c0,0-0.1-0.1-0.1-0.1L7.9,10
			c0.1,0.1,0.1,0.2,0.2,0.3c0.1,0.1,0.2,0.1,0.4,0.1c0.1,0,0.3-0.1,0.4-0.2C9,10.1,9.1,10,9.1,9.9c0-0.1,0.1-0.2,0.1-0.3
			c0-0.1,0-0.3-0.1-0.4C9,9.1,8.8,8.9,8.7,8.8C8.5,8.7,8.3,8.7,8.1,8.7v0H2.7c0.5-1.1,0.8-2.1,0.9-3.1c0.2-1,0.2-2,0.2-3
			c0-0.5,0-1,0-1.5h7.6c0,0.5,0,1.1,0,1.7C11.4,4.2,11.4,5.7,11.1,7.1z"/>
		<path class="st7" d="M7.8,4.4C7.8,3.7,7.8,3,7.8,2.3H4.9c0,0.7,0,1.4-0.1,2.1H7.8z"/>
	</g>
</g>
</svg>
