<svg width="10" height="10" viewBox="0 0 10 10" fill="none" xmlns="http://www.w3.org/2000/svg">
<g clip-path="url(#clip0_27_246)">
<path d="M9.64908 4.33341C9.26754 4.26989 7.31947 4.04001 6.97847 4.01552C6.71965 3.99691 6.02472 3.88833 6.46982 3.31605C7.36181 1.87837 7.17111 1.13663 6.87441 0.670402C6.62586 0.279855 5.87836 0.16175 5.70681 1.0906C5.5326 2.03405 4.99301 2.43333 4.67035 2.81083C4.01543 3.57726 2.65472 5.09652 2.65472 5.09652V8.91155C2.65472 8.91155 5.62135 9.53812 6.34263 9.61099C7.0131 9.67874 7.55345 9.39271 7.87135 9.01124C8.24472 8.5632 9.30662 6.34384 9.52189 5.85948C10.2441 5.20568 10.0306 4.397 9.64908 4.33341Z" fill="#006D41"/>
<path d="M1.66895 4.88782H0V9.46549H1.66895V4.88782Z" fill="#006D41"/>
</g>
<defs>
<clipPath id="clip0_27_246">
<rect width="10" height="10" fill="white"/>
</clipPath>
</defs>
</svg>
