<svg width="99" height="30" viewBox="0 0 99 30" fill="none" xmlns="http://www.w3.org/2000/svg">
<g clip-path="url(#clip0_27_161)">
<path d="M16.541 4.72849C17.9121 3.35739 18.4453 1.54685 18.0293 0.140596C16.623 -0.27542 14.8066 0.257783 13.4355 1.62888C12.0703 2.99411 11.5371 4.80466 11.9531 6.21677C13.3594 6.62692 15.1758 6.09372 16.541 4.72849Z" fill="#FFA300"/>
<path d="M11.2207 7.5527C5.02734 7.5527 0 12.5801 0 18.7793C0 24.9726 5.02734 30 11.2207 30C17.4199 30 22.4414 24.9726 22.4414 18.7793C22.4414 12.5859 17.4199 7.5527 11.2207 7.5527ZM11.2207 27.6621C6.32227 27.6621 2.33789 23.6777 2.33789 18.7793C2.33789 13.8808 6.32227 9.89646 11.2207 9.89646C16.1191 9.89646 20.1035 13.8808 20.1035 18.7793C20.1035 23.6777 16.125 27.6621 11.2207 27.6621Z" fill="#FFA300"/>
<path d="M7.18945 23.1445C7.41211 23.5605 7.93359 23.7129 8.34961 23.4902C8.76562 23.2617 8.91797 22.7461 8.68945 22.3301C8.51953 22.0195 8.38477 21.8027 8.29687 21.5801C8.20898 21.3574 8.14453 21.0996 8.14453 20.6543C8.14453 20.2676 8.19727 20.0215 8.26758 19.8164C8.32031 19.6641 8.38477 19.5293 8.47266 19.3711C8.60156 19.1367 8.78906 18.8437 8.94726 18.4336C9.10547 18.0293 9.21094 17.5195 9.21094 16.9043C9.21094 16.2773 9.09961 15.7617 8.94141 15.3516C8.77734 14.9414 8.58398 14.6484 8.46094 14.4082C8.23828 13.9922 7.7168 13.8399 7.30078 14.0684C6.88477 14.2969 6.73242 14.8125 6.95508 15.2285C7.125 15.5391 7.25977 15.7559 7.34766 15.9785C7.43555 16.2012 7.5 16.459 7.5 16.9043C7.5 17.291 7.44727 17.5371 7.37695 17.7422C7.32422 17.8945 7.25977 18.0293 7.17187 18.1875C7.04297 18.4219 6.85547 18.7148 6.69727 19.125C6.53906 19.5293 6.43359 20.0391 6.43359 20.6543C6.43359 21.2812 6.54492 21.7969 6.70312 22.207C6.86719 22.6172 7.06055 22.9101 7.18945 23.1445Z" fill="#FFA300"/>
<path d="M10.5586 24.0645C10.7461 24.4981 11.25 24.6973 11.6836 24.5098C12.1172 24.3223 12.3164 23.8184 12.1289 23.3848C11.9648 23.0098 11.8242 22.7285 11.7246 22.4121C11.625 22.0957 11.5547 21.7207 11.5488 21.1172C11.5488 20.5957 11.6074 20.2442 11.6836 19.9512C11.7422 19.7344 11.8183 19.5469 11.9062 19.3418C12.041 19.0371 12.2226 18.6856 12.3691 18.211C12.5156 17.7364 12.6152 17.1621 12.6152 16.4356C12.6152 15.6914 12.5156 15.1055 12.3633 14.6309C12.2109 14.1504 12.0293 13.7989 11.8945 13.4942C11.707 13.0606 11.2031 12.8614 10.7695 13.0489C10.3359 13.2364 10.1367 13.7403 10.3242 14.1739C10.4883 14.5547 10.6289 14.8301 10.7285 15.1465C10.8281 15.4629 10.8984 15.8379 10.8984 16.4356C10.8984 16.9571 10.8398 17.3086 10.7637 17.6016C10.7051 17.8184 10.6289 18.0059 10.541 18.211C10.4062 18.5157 10.2246 18.8672 10.0781 19.3418C9.93164 19.8106 9.83203 20.3907 9.83203 21.1172C9.83203 21.8614 9.93164 22.4473 10.084 22.9219C10.2422 23.4024 10.4238 23.7539 10.5586 24.0645Z" fill="#FFA300"/>
<path d="M13.9922 23.1446C14.2207 23.5606 14.7363 23.713 15.1523 23.4903C15.5684 23.2618 15.7207 22.7462 15.4922 22.3302C15.3223 22.0196 15.1875 21.8028 15.0996 21.5801C15.0117 21.3575 14.9473 21.0997 14.9473 20.6544C14.9473 20.2677 15 20.0216 15.0703 19.8165C15.123 19.6641 15.1875 19.5294 15.2754 19.3712C15.4043 19.1368 15.5918 18.8438 15.75 18.4337C15.9082 18.0294 16.0137 17.5196 16.0137 16.9044C16.0137 16.2774 15.9023 15.7618 15.7441 15.3516C15.5801 14.9415 15.3926 14.6485 15.2637 14.4083C15.0352 13.9923 14.5195 13.8399 14.1035 14.0626C13.6875 14.2852 13.5352 14.8067 13.7578 15.2227C13.9277 15.5333 14.0625 15.7501 14.1504 15.9727C14.2383 16.1954 14.3027 16.4532 14.3027 16.8985C14.3027 17.2852 14.25 17.5313 14.1797 17.7364C14.127 17.8887 14.0625 18.0235 13.9746 18.1817C13.8457 18.4161 13.6582 18.7091 13.5 19.1192C13.3418 19.5235 13.2363 20.0333 13.2363 20.6485C13.2363 21.2755 13.3477 21.7911 13.5059 22.2012C13.6699 22.6173 13.8633 22.9044 13.9922 23.1446Z" fill="#FFA300"/>
<path d="M36.2988 12.8614C35.6426 13.459 35.4668 13.6055 33.6855 15.1055C33.7266 16.377 33.7559 17.5254 33.7559 18.3281C33.7559 19.7871 33.6973 20.8535 33.6562 21.4805H32.4141C32.3555 20.5606 32.3555 18.9141 32.3555 18.3281C32.3555 18.0352 32.3848 16.5059 32.3848 16.125C31.7168 16.6348 31.0312 17.1446 30.2988 17.584L29.7422 16.7989C29.5371 18.7676 29.1445 20.3555 28.998 20.9414C27.9199 20.8535 27.6973 20.8418 26.7246 20.6192L26.9121 19.5528C27.0703 19.5645 27.832 19.6113 27.9902 19.6231C28.0312 19.3301 28.166 18.586 28.207 18.3692C28.3652 17.5078 28.3828 17.4199 28.4121 17.3028C28.4004 17.3145 27.1699 17.3145 27.1289 17.3145L27.1875 16.3653C26.4902 18.7559 25.6289 20.7422 25.3652 21.3223L24.3574 20.9883C24.4453 20.666 26.3555 14.543 26.6016 13.7813C26.6426 13.6524 26.7012 13.459 26.8184 13.1953L27.8848 13.4297C27.7383 14.2617 27.5918 14.8711 27.2578 16.0957C27.7383 16.0254 29.0977 15.9961 29.8125 15.9961C29.8008 16.084 29.7715 16.4473 29.7715 16.5352C30.3398 15.9785 33.8086 13.2539 35.6191 11.9707L36.2988 12.8614ZM29.707 12.6153C28.5234 12.7735 25.8105 12.8789 24.8086 12.8496V11.7246C26.0215 11.5664 28.4707 11.4317 29.707 11.4785V12.6153ZM28.6289 9.34573C28.6289 9.73831 28.2773 10.2364 27.668 10.2364C27.0234 10.2364 26.6016 9.67972 26.6016 9.22854C26.6016 8.71878 27.1289 8.39651 27.5918 8.39651C28.0605 8.40237 28.6289 8.80667 28.6289 9.34573ZM28.9336 14.584C29.1211 14.0567 30.4512 11.2324 30.4805 11.1739C31.0781 9.90237 31.7051 8.79495 32.3027 7.74612L33.3105 8.1973C33.0937 8.76565 32.959 9.05862 32.1855 10.752C33.3691 10.6055 37.2305 10.418 38.3555 10.4473V11.6133C36.8555 11.7422 34.5762 11.9649 32.0098 11.9942V11.1211C31.2539 12.7852 30.1113 14.8418 29.9238 15.0879L28.9336 14.584ZM37.623 21.2344C36.5859 20.0391 35.3906 18.6504 33.8906 15.8965L34.8691 15.2989C36.5449 17.6309 37.1016 18.4336 38.5019 20.6367L37.623 21.2344ZM38.2793 15.9258C38.2793 16.4824 37.7109 16.9746 37.1719 16.9746C36.791 16.9746 36.2988 16.6699 36.2988 16.0547C36.2988 15.5156 36.709 15.0176 37.3066 15.0176C38.0039 15.0235 38.2793 15.5742 38.2793 15.9258Z" fill="black"/>
<path d="M39.2578 20.5606C40.4824 19.875 41.168 19.5996 44.6543 18.1817C41.3027 18.252 40.9219 18.2696 39.6504 18.2696V17.1739C40.1309 17.1153 40.4238 17.1035 40.6582 17.086C41.5488 17.045 41.8711 17.0274 44.7422 16.9102C44.7715 16.3418 44.7715 16.2657 44.8008 15.9317H46.125C46.1543 16.2832 46.166 16.4883 46.1836 16.8633C49.3769 16.8047 49.6406 16.793 51.5801 16.793V17.8418C50.6894 17.959 50.0332 17.9707 46.2129 18.1348C46.2129 19.8282 46.1719 20.7012 46.125 21.5157H44.8125C44.8008 21.1934 44.8008 21.1055 44.7832 20.3203L44.7715 19.4473C43.166 20.3086 41.4785 20.9649 39.7559 21.5742L39.2578 20.5606ZM40.6875 9.68558C40.7168 10.0664 40.7578 10.7051 40.7578 11.6543C40.7578 12.4688 40.7285 12.9668 40.6992 13.4942L39.457 13.5059C39.4277 12.9785 39.3691 12.1348 39.3691 11.1153C39.3691 10.4004 39.3984 10.0371 39.4102 9.68558H40.6875ZM48.1816 13.7696C47.8477 14.0332 47.5137 14.2969 46.8984 14.6602C47.291 14.7774 49.0254 15.2754 49.3769 15.3867L49.0254 16.3946C48.4863 16.295 47.4082 16.1016 45.3047 15.5039C43.6113 16.2774 42.5625 16.6114 42.0234 16.7754L41.543 15.8145C41.7891 15.6973 41.877 15.668 42.6504 15.3164L43.5117 14.9239C42.8437 14.6895 42.6387 14.5899 42.375 14.4551C42.5215 14.1621 42.668 13.8867 43.043 13.2891C42.8262 13.3008 41.877 13.3477 41.6719 13.3594C41.5547 13.3711 41.4668 13.3711 41.291 13.3711V12.3223C41.6836 12.2813 43.4355 12.1758 43.7871 12.1465C43.9746 11.8535 44.1797 11.5606 44.543 11.0977C43.6406 11.127 42.0645 11.1973 41.2324 11.1973V10.0606C43.1133 9.84378 48.5508 9.56253 51.457 9.56253C51.4687 10.002 51.498 10.4649 51.498 11.2676C51.498 12.0703 51.4687 12.5918 51.457 12.9317H50.2031C50.1152 12.1289 50.1035 11.1973 50.1035 10.8047C50.0742 10.8047 47.4668 10.9805 45.0117 11.0801L45.668 11.461C45.5977 11.5899 45.3633 11.959 45.3047 12.0586C46.3828 11.9883 47.4316 11.9297 49.4766 11.9297V12.9082C49.1836 12.92 47.959 12.9961 47.5781 13.0254L48.1816 13.7696ZM44.6074 13.1953C44.373 13.5762 44.3437 13.6172 44.1855 13.8633C44.3144 13.8926 44.8535 14.0508 45.1934 14.1563C46.3184 13.5996 46.957 13.2364 47.3086 13.0313C45.7734 13.1426 45.5977 13.1426 44.6074 13.1953ZM46.3594 8.74808C46.3594 8.95316 46.2305 9.56253 45.4102 9.56253C44.4609 9.56253 44.3027 8.74808 44.3027 8.52542C44.3027 8.17386 44.5781 7.68167 45.2637 7.68167C46.084 7.68753 46.3594 8.40237 46.3594 8.74808ZM47.1035 18.2578C48.709 18.8145 50.3437 19.3946 51.8262 20.1387L51.4043 21.1465C50.1621 20.795 47.8594 19.9629 46.6348 19.2774L47.1035 18.2578Z" fill="black"/>
<path d="M52.1894 15.9845C52.746 15.2696 52.9746 15.006 55.4121 12.2931C57.0175 10.588 57.1933 10.3946 57.9082 9.59775C57.5449 9.62705 56.0566 9.65634 55.9394 9.65634V8.46103C57.5273 8.30283 59.3203 8.28525 60.4922 8.28525C59.6015 9.68564 56.8769 12.7618 56.8593 12.7794C54.1757 15.6095 53.8242 15.9903 53.2265 16.5294C53.1855 16.5411 53.0683 16.6466 52.9921 16.7052L52.1894 15.9845ZM55.6464 11.4024C55.6464 12.0177 55.0898 12.2755 54.7441 12.2755C54.5976 12.2755 53.7831 12.1876 53.7831 11.3731C53.7831 10.7579 54.3984 10.5294 54.6855 10.5294C55.4531 10.5294 55.6464 11.0977 55.6464 11.4024ZM59.7129 14.7423C57.6562 14.8419 57.4218 14.8595 56.0507 14.8595V13.6935C58.3535 13.4298 61.0078 13.3888 62.5547 13.3888V14.5841C62.3789 14.5958 61.6054 14.6427 61.084 14.672L61.1133 16.4356C62.0332 16.4063 62.9355 16.3946 63.8555 16.3946L63.8437 17.5313C63.1465 17.6192 62.7187 17.6602 61.1484 17.7657C61.1484 18.129 61.1484 19.7052 61.1191 20.0274C61.8457 19.9688 62.5605 19.9571 63.2929 19.9571C63.3808 19.7696 63.8203 19.0665 63.9902 18.8907L64.9687 19.4474C64.4297 20.5841 64.4297 20.6134 64.0195 21.2403C62.8066 21.3399 59.8652 21.3399 59.7304 21.3399C59.7304 21.0938 59.7187 20.9181 59.7187 20.672C59.707 20.2325 59.6894 18.252 59.6777 17.8595C59.1386 17.8888 59.0097 17.9005 57.7793 17.9591C57.416 18.8321 56.9941 19.8575 55.8691 21.5919L54.7324 21.0938C54.832 20.8302 54.9082 20.6837 54.996 20.4786C55.1718 20.0977 55.957 18.3927 56.121 18.0411C55.3652 18.0704 54.955 18.0704 54.5332 18.0704V16.8751C54.8847 16.8341 56.2675 16.7286 56.707 16.6876C56.8066 16.4415 57.2754 15.3751 57.375 15.1583L58.541 15.5216C58.4121 16.1075 58.3535 16.3067 58.2656 16.588C58.5586 16.5763 59.4492 16.5177 59.6953 16.5001L59.7129 14.7423ZM65.4727 11.5489C65.0625 12.1349 64.5996 12.6446 64.3359 12.9024C65.0801 13.629 65.8828 14.42 66.4922 15.1466L65.6894 15.961C64.5527 15.0587 61.8691 12.4923 59.8242 10.1544L60.6679 9.33994C61.2363 9.86728 61.4531 10.0841 63.4687 12.0528C64.1133 11.2091 64.4297 10.9161 64.6055 10.752L65.4727 11.5489ZM64.0723 10.2071C63.8086 10.5704 63.4746 10.9337 63.123 11.2149L62.3379 10.4884C62.5137 10.2423 62.7598 9.89072 63.2988 9.48056L64.0723 10.2071Z" fill="black"/>
<path d="M66.7148 14.8594C68.7539 11.9004 69.8203 10.3535 71.8066 8.00394L72.7676 8.7012C70.957 11.3672 68.7598 14.3145 67.5879 15.586L66.7148 14.8594ZM68.959 21.4981C68.9473 20.9414 68.918 19.8047 68.918 18.2051C68.918 16.1953 68.959 14.6602 68.9883 13.9629L70.2598 13.9512C70.3008 15.2227 70.3301 16.4766 70.3301 17.7305C70.3301 19.3184 70.2715 20.8067 70.2422 21.5098H68.959V21.4981ZM80.5547 12.3106C78.3809 12.5157 73.2656 12.7207 71.1621 12.7207V11.5371C75.2578 11.2617 76.6758 11.1856 80.5547 11.1856V12.3106ZM73.875 17.1914C73.9043 17.8477 73.916 18.375 73.9336 20.0332C75.5215 19.9453 75.6856 19.9453 77.6543 19.9453V18.3399C77.1738 18.3692 75.7852 18.4395 74.332 18.4395V17.3145C76.3125 17.168 77.3789 17.1387 79.0137 17.1387C79.043 17.6075 79.0723 18.2051 79.0723 18.9785C79.0723 19.7051 79.043 20.42 79.002 21.1348C76.9629 21.2813 74.7305 21.2813 72.5977 21.2813C72.5859 20.918 72.5566 20.1856 72.5566 19.4414C72.5566 18.627 72.5859 17.8828 72.627 17.1797H73.875V17.1914ZM78.7852 14.3379C76.7871 14.4844 74.8066 14.6133 72.8086 14.6309L72.8203 13.5645C75.6211 13.377 77.0332 13.3301 78.7676 13.3301L78.7852 14.3379ZM78.7559 16.1895C76.7871 16.3477 74.8184 16.4825 72.8496 16.4825V15.4453C74.2031 15.3282 76.4824 15.1992 78.7383 15.1817L78.7559 16.1895ZM77.0215 9.4512C77.0215 9.81448 76.6875 10.3711 76.0313 10.3711C75.4453 10.3711 74.8184 9.93167 74.8184 9.293C74.8184 8.85355 75.1816 8.34378 75.8086 8.34378C76.5117 8.34378 77.0215 8.94144 77.0215 9.4512Z" fill="black"/>
<path d="M84.0469 11.6368C85.8281 11.4903 86.4375 11.4785 87.3574 11.4785C87.3691 12.0762 87.3984 12.92 87.3984 13.5645C87.3984 14.2207 87.3691 15.0821 87.3398 15.8965C85.7637 16.0137 85.5469 16.0254 83.0801 16.0723C82.6582 18.375 82.0898 20.0508 81.6797 21.252L80.5547 20.9883C80.8594 19.6055 82.2773 12.8379 82.5117 11.2032L83.7246 11.3321C83.6367 12.0879 83.4902 13.5469 83.3027 14.7891C84.1641 14.7188 84.6738 14.7012 86.0273 14.6895C86.0273 14.1328 86.0391 13.1016 86.0391 12.75C85.3535 12.7911 84.6855 12.8086 84.0293 12.8203L84.0469 11.6368ZM88.7871 9.668C86.0156 9.8848 84.0644 9.99027 81.4395 10.002L81.4102 8.77738C83.7422 8.61917 85.7578 8.47269 88.7871 8.47269V9.668ZM86.7773 21.2051C87.6797 16.875 87.8848 15.5332 88.4414 11.5371C90.4512 10.0664 91.3008 9.49808 93.5742 8.15628L94.2715 9.16409C92.2617 10.6934 91.3828 11.25 89.748 12.2286C89.6016 13.5293 89.543 13.9043 89.4141 14.8653C91.5293 14.7071 93.2812 14.6778 94.3418 14.6485L94.3535 15.961C92.0918 16.0899 91.7988 16.1075 89.2031 16.1661C88.8223 18.2051 88.3887 19.9864 87.8789 21.4747L86.7773 21.2051ZM91.6172 21.4102C91.5762 20.3614 91.5469 19.5 91.5469 18.9024C91.5469 18.1465 91.5879 17.1094 91.6172 16.4239L92.8594 16.3946C92.8887 16.9512 92.9297 17.9825 92.9297 18.7735C92.9297 19.5 92.8887 20.4375 92.8418 21.3985L91.6172 21.4102Z" fill="black"/>
<path d="M42.0938 0.990204H41.1855V0.199188H43.875V0.990204H42.9668V5.7363H42.0996V0.990204H42.0938Z" fill="#006D41"/>
<path d="M45.3926 0.199188H46.5703L47.4727 5.7363H46.6055L46.4473 4.63474V4.65231H45.457L45.293 5.7363H44.4844L45.3926 0.199188ZM46.3418 3.89645L45.9551 1.16013H45.9375L45.5566 3.89645H46.3418Z" fill="#006D41"/>
<path d="M48.6797 0.199188H49.9922C50.8946 0.199188 51.2813 0.621063 51.2813 1.47067V1.69333C51.2813 2.26169 51.1055 2.61911 50.7188 2.77731V2.79489C51.1876 2.95309 51.3692 3.36325 51.3692 3.94919V4.4238C51.3692 5.27927 50.918 5.7363 50.0508 5.7363H48.6797V0.199188ZM49.8926 2.44919C50.2149 2.44919 50.4141 2.30856 50.4141 1.86325V1.5527C50.4141 1.15427 50.2793 0.984344 49.9688 0.984344H49.5469V2.44919H49.8926ZM50.0508 4.94528C50.3438 4.94528 50.502 4.81052 50.502 4.40036V3.91989C50.502 3.40427 50.3379 3.24606 49.9395 3.24606H49.5528V4.94528H50.0508Z" fill="#006D41"/>
<path d="M52.67 0.199188H53.5371V5.7363H52.67V0.199188Z" fill="#006D41"/>
<path d="M55.6524 0.199188H56.8301L57.7325 5.7363H56.8653L56.7071 4.63474V4.65231H55.7168L55.5586 5.7363H54.75L55.6524 0.199188ZM56.6016 3.89645L56.2149 1.16013H56.1973L55.8164 3.89645H56.6016Z" fill="#006D41"/>
<path d="M58.9394 0.199188H60.0293L60.873 3.51559H60.8906V0.199188H61.6641V5.7363H60.7676L59.7246 1.69333H59.707V5.7363H58.9335V0.199188H58.9394Z" fill="#006D41"/>
<path d="M63.1113 0.199188H63.9785V5.7363H63.1113V0.199188Z" fill="#006D41"/>
<path d="M65.4199 0.199188H66.5098L67.3535 3.51559H67.3711V0.199188H68.1445V5.7363H67.248L66.2051 1.69333H66.1875V5.7363H65.4141V0.199188H65.4199Z" fill="#006D41"/>
<path d="M69.5859 0.199188H71.8887V0.990204H70.459V2.53122H71.584V3.32224H70.459V5.7363H69.5918V0.199188H69.5859Z" fill="#006D41"/>
<path d="M73.0371 4.42383V1.51172C73.0371 0.626953 73.5059 0.117188 74.3555 0.117188C75.2051 0.117188 75.6738 0.621094 75.6738 1.51172V4.42383C75.6738 5.30859 75.2051 5.81836 74.3555 5.81836C73.5059 5.81836 73.0371 5.30859 73.0371 4.42383ZM74.8066 4.47656V1.45312C74.8066 1.06055 74.6309 0.908203 74.3555 0.908203C74.0801 0.908203 73.9043 1.06055 73.9043 1.45312V4.47656C73.9043 4.875 74.0801 5.02148 74.3555 5.02148C74.6309 5.02148 74.8066 4.875 74.8066 4.47656Z" fill="#006D41"/>
<path d="M95.1973 23.8477H24.4043V24.1348H95.1973V23.8477Z" fill="black"/>
<path d="M95.1973 29.7129H24.4043V30H95.1973V29.7129Z" fill="black"/>
<path d="M28.4121 28.1484C28.2774 28.0137 28.1426 27.8789 28.0196 27.5684C27.9024 27.2754 27.8731 27.0352 27.8496 26.8477C27.8145 26.8594 27.7969 26.8652 27.7324 26.8887V28.1426H27.4629V26.9707C27.4453 26.9766 27.4278 26.9766 27.3926 26.9883L27.252 26.7891C27.2637 27.2227 27.2402 27.6152 27.2051 27.8086C27.1465 28.1426 26.9297 28.1484 26.7774 28.1543L26.6602 27.8613C26.707 27.8672 26.7891 27.873 26.8301 27.873C26.8477 27.873 26.9004 27.873 26.9414 27.7969C27.0059 27.668 27.0117 27.2051 27.0117 27.1875C27.0117 27.1348 27.0117 27.0937 27.0059 27.0117H26.8242C26.7598 27.5859 26.6484 27.8437 26.4727 28.1367L26.2266 28.0312C26.332 27.8789 26.4258 27.7383 26.502 27.416C26.5957 27.041 26.5898 26.7305 26.5898 26.4844H26.3262V26.2324H26.6836V25.8398L27.0059 25.875C27.0234 25.875 27.0469 25.875 27.0469 25.8984C27.0469 25.916 27.0117 25.9277 26.9824 25.9453V26.2324H27.3047V26.3848C27.4102 26.2207 27.4981 26.0449 27.5449 25.8574L27.8555 25.9277C27.8672 25.9277 27.8848 25.9395 27.8848 25.957C27.8848 25.9746 27.8555 25.9805 27.8145 25.998C27.8028 26.0391 27.7793 26.0801 27.7676 26.1152H28.6055V26.3613H27.6387C27.5801 26.4551 27.4863 26.6191 27.3809 26.7422C27.6563 26.6895 27.9434 26.6016 28.3125 26.3613L28.4766 26.5371C28.4825 26.543 28.5059 26.5723 28.5059 26.5898C28.5059 26.6191 28.4649 26.6074 28.4356 26.6074C28.3477 26.6543 28.2246 26.7187 28.1074 26.7656C28.1074 26.9648 28.125 27.0586 28.1367 27.1289C28.2071 27.0586 28.3184 26.9355 28.377 26.8477L28.6055 26.9766C28.6231 26.9824 28.6465 27.0059 28.6465 27.0234C28.6465 27.0527 28.6114 27.0527 28.5762 27.0527C28.5059 27.123 28.3242 27.3105 28.2188 27.4043C28.3242 27.6328 28.4297 27.7617 28.6817 27.9727L28.4121 28.1484ZM27.1231 26.584C27.1465 26.5664 27.1758 26.543 27.2285 26.4727H26.8418C26.8418 26.5664 26.8418 26.6484 26.8418 26.7422H27.252C27.2695 26.7422 27.293 26.7422 27.3399 26.7363L27.1231 26.584Z" fill="#3F3F3F"/>
<path d="M30.2109 26.5898C30.1758 26.5957 30.1758 26.5957 30.1699 26.6074C30.0762 26.7363 30.041 26.7832 29.9355 26.9063C29.9707 26.9297 29.9883 26.9414 29.9883 26.9648C29.9883 26.9883 29.9765 27 29.959 27.0059C29.9472 27.0176 29.9355 27.0293 29.9355 27.0469V28.1602H29.6133V27.2344C29.5254 27.3164 29.4843 27.3457 29.4433 27.375L29.1972 27.1816C29.4726 27 29.8008 26.6191 29.9414 26.3672L30.2051 26.5195C30.2226 26.5254 30.2285 26.5488 30.2285 26.5547C30.2402 26.5723 30.2285 26.584 30.2109 26.5898ZM30.0937 26.0625C30.0586 26.0625 30.0586 26.0625 30.0293 26.0918C29.7949 26.3379 29.5781 26.4844 29.4961 26.5547L29.25 26.3379C29.3847 26.2441 29.6074 26.0918 29.8535 25.8105L30.123 26.0039C30.1347 26.0098 30.1523 26.0273 30.1523 26.0391C30.1523 26.0625 30.1172 26.0625 30.0937 26.0625ZM31.2422 26.8418V27.9316C31.2422 28.1074 31.1191 28.1719 30.9492 28.1719H30.709L30.5742 27.8379C30.6621 27.8555 30.7851 27.873 30.8379 27.873C30.8789 27.873 30.9199 27.8496 30.9199 27.7852V26.8418H30.2402V26.5488H31.6113V26.8418H31.2422ZM30.3457 26.1797V25.8867H31.5V26.1797H30.3457Z" fill="#3F3F3F"/>
<path d="M34.2773 27.5624C34.0723 27.8613 33.791 27.9785 33.6445 28.037L33.4453 27.7558C33.5684 27.7206 33.7676 27.662 33.9316 27.4687C34.0957 27.2753 34.125 27.0468 34.125 26.9296C34.125 26.7831 34.084 26.6015 33.9316 26.455C33.7617 26.291 33.5742 26.2792 33.4687 26.2734C33.3809 26.9179 33.2227 27.2988 33.1348 27.4804C33.0527 27.6503 32.9297 27.873 32.7891 27.873C32.6894 27.873 32.25 27.6269 32.25 27.1464C32.25 26.5429 32.748 25.998 33.4453 25.998C34.0078 25.998 34.4531 26.3788 34.4531 26.9824C34.4531 27.2285 34.3769 27.416 34.2773 27.5624ZM32.8242 26.5253C32.6309 26.707 32.5547 26.9589 32.5547 27.1288C32.5547 27.3456 32.6777 27.4628 32.7305 27.4628C32.8711 27.4628 33.1055 26.7538 33.1582 26.332C33.0762 26.3554 32.9531 26.3964 32.8242 26.5253Z" fill="#3F3F3F"/>
<path d="M36.0176 26.5898C35.9824 26.5957 35.9824 26.5957 35.9766 26.6074C35.8828 26.7363 35.8477 26.7832 35.7422 26.9063C35.7773 26.9297 35.7949 26.9414 35.7949 26.9648C35.7949 26.9883 35.7832 27 35.7656 27.0059C35.7539 27.0176 35.7422 27.0293 35.7422 27.0469V28.1602H35.4199V27.2344C35.332 27.3164 35.291 27.3457 35.25 27.375L35.0039 27.1816C35.2793 27 35.6074 26.6191 35.748 26.3672L36.0117 26.5195C36.0293 26.5254 36.0352 26.5488 36.0352 26.5547C36.041 26.5723 36.0293 26.584 36.0176 26.5898ZM35.9004 26.0625C35.8652 26.0625 35.8652 26.0625 35.8359 26.0918C35.6016 26.3379 35.3848 26.4844 35.3027 26.5547L35.0566 26.3379C35.1914 26.2441 35.4141 26.0918 35.6602 25.8105L35.9297 26.0039C35.9414 26.0098 35.959 26.0273 35.959 26.0391C35.9531 26.0625 35.9238 26.0625 35.9004 26.0625ZM37.0488 26.8418V27.9316C37.0488 28.1074 36.9258 28.1719 36.7559 28.1719H36.5156L36.3809 27.8379C36.4688 27.8555 36.5918 27.873 36.6445 27.873C36.6855 27.873 36.7266 27.8496 36.7266 27.7852V26.8418H36.0469V26.5488H37.418V26.8418H37.0488ZM36.1465 26.1797V25.8867H37.3008V26.1797H36.1465Z" fill="#3F3F3F"/>
<path d="M39.3105 26.8418C39.4805 27.1641 39.5625 27.2754 39.668 27.4043L39.5039 27.6094C39.375 27.5391 39.1055 27.4043 38.7949 27.4043C38.6191 27.4043 38.4668 27.4805 38.4668 27.627C38.4668 27.8555 38.8184 27.8555 38.9121 27.8555C39.1699 27.8555 39.3223 27.8145 39.4512 27.7852L39.4219 28.1074C39.3457 28.1191 39.2109 28.1426 38.9941 28.1426C38.5078 28.1426 38.1738 27.9902 38.1738 27.6328C38.1738 27.2637 38.4668 27.1641 38.7715 27.1641C38.9062 27.1641 39.0234 27.1816 39.1582 27.2051C39.0937 27.0879 39.0703 27.041 39.0176 26.9414C38.7363 27.0117 38.502 27.0527 38.1504 27.0586L38.0566 26.7832C38.4434 26.7832 38.6191 26.7656 38.9062 26.7012C38.8652 26.6074 38.8359 26.543 38.8066 26.4785C38.5312 26.5313 38.3789 26.5488 38.1621 26.5488L38.0801 26.291C38.3379 26.291 38.4785 26.2793 38.7129 26.2383C38.6484 26.0684 38.6191 25.9863 38.5781 25.8574L38.8887 25.8223C38.9121 25.8223 38.9766 25.8106 38.9766 25.8457C38.9766 25.8574 38.9707 25.8692 38.9531 25.8809C38.9297 25.9043 38.9297 25.9102 38.9297 25.916C38.9297 25.9336 38.9766 26.0684 39.0117 26.1621C39.1934 26.0977 39.2988 26.0508 39.4746 25.9512L39.5332 26.2149C39.3809 26.3145 39.2285 26.3555 39.1055 26.3965C39.1406 26.4785 39.1523 26.5078 39.1934 26.6016C39.3926 26.5254 39.5039 26.4668 39.6855 26.3555L39.7324 26.625C39.5859 26.7305 39.4805 26.7774 39.3105 26.8418Z" fill="#3F3F3F"/>
<path d="M41.2383 26.6249C41.1035 27.0761 40.9629 27.5097 40.6816 28.0663L40.3535 27.9667C40.5176 27.7031 40.6875 27.4101 40.9043 26.6777C40.6875 26.707 40.5938 26.707 40.5 26.7128L40.4766 26.4316C40.5059 26.4374 40.5645 26.4492 40.6934 26.4492C40.7285 26.4492 40.9043 26.4492 40.9629 26.4316C41.0039 26.2499 41.0508 26.039 41.0566 25.8574L41.3906 25.9335C41.3965 25.9335 41.4609 25.9453 41.4609 25.9745C41.4609 25.9921 41.4551 26.0038 41.4258 26.0097C41.3906 26.0273 41.3848 26.0273 41.3789 26.0566C41.3555 26.1796 41.332 26.2734 41.3145 26.3495C41.4727 26.3144 41.6367 26.2441 41.7422 26.1913V26.4902C41.6484 26.5253 41.5371 26.5663 41.2383 26.6249ZM41.9238 28.0839C41.4375 28.0839 41.2266 27.9492 41.2266 27.6738C41.2266 27.662 41.2266 27.5742 41.2617 27.4804L41.5313 27.539C41.5195 27.5917 41.5195 27.6328 41.5195 27.6386C41.5195 27.6738 41.5254 27.6972 41.5547 27.7206C41.6309 27.791 41.8359 27.791 41.9004 27.791C42.1523 27.791 42.2988 27.7499 42.375 27.7324L42.4043 28.0488C42.2578 28.0663 42.1113 28.0839 41.9238 28.0839ZM41.9824 27.0058C41.8066 27.0058 41.6426 27.0292 41.5781 27.0351V26.7538C41.7188 26.7421 41.8535 26.7363 42 26.7363C42.1875 26.7363 42.2754 26.7421 42.3574 26.7538V27.041C42.1524 27.0117 42.0234 27.0058 41.9824 27.0058Z" fill="#3F3F3F"/>
<path d="M43.541 27.8964C43.4531 27.8964 43.3887 27.8496 43.3418 27.8085C43.1543 27.6269 43.0664 27.3105 43.0664 26.7949C43.0664 26.4492 43.1016 26.2734 43.1484 26.0917L43.4473 26.1738C43.4648 26.1796 43.5117 26.1913 43.5117 26.2265C43.5117 26.2558 43.4766 26.2675 43.4355 26.2851C43.4062 26.4316 43.3828 26.5898 43.3828 26.8886C43.3828 27.416 43.5117 27.5156 43.5645 27.5156C43.6641 27.5156 43.7754 27.2285 43.8223 27.0995L44.0449 27.2988C43.8926 27.6093 43.7578 27.8964 43.541 27.8964ZM44.9121 27.416C44.8359 26.8535 44.6543 26.5312 44.5137 26.3144L44.7949 26.1796C44.9238 26.3613 45.1641 26.707 45.2402 27.3281L44.9121 27.416Z" fill="#3F3F3F"/>
<path d="M46.7402 28.0898C46.418 28.0898 46.2773 28.0546 46.1426 27.9843C45.9492 27.8788 45.8672 27.6913 45.8672 27.5214C45.8672 27.1816 46.1309 27.0117 46.4297 26.8359C46.3535 26.7538 46.3008 26.666 46.2715 26.5898C46.2363 26.5019 46.2188 26.4199 46.1309 25.9042L46.4766 25.8515C46.4766 26.0038 46.4824 26.291 46.5527 26.4902C46.5879 26.5956 46.6465 26.6367 46.7109 26.6718C47.0215 26.5253 47.0566 26.5078 47.3906 26.3495L47.4902 26.6777C47.0625 26.7949 46.6641 26.9941 46.4883 27.1054C46.3652 27.1816 46.166 27.3163 46.166 27.498C46.166 27.6913 46.377 27.7851 46.6641 27.7851C46.9453 27.7851 47.2266 27.7324 47.502 27.662V28.0077C47.3438 28.0488 47.0801 28.0898 46.7402 28.0898Z" fill="#3F3F3F"/>
<path d="M49.0312 27.9726C48.791 27.9726 48.4043 27.9492 48.2461 27.8027C48.2051 27.7675 48.1582 27.7031 48.1582 27.5917C48.1582 27.3515 48.2988 27.1992 48.4277 27.0761L48.6738 27.2812C48.6035 27.3398 48.5156 27.4218 48.5156 27.5156C48.5156 27.5683 48.5391 27.5859 48.5508 27.6035C48.6269 27.6679 48.8906 27.6679 49.0137 27.6679C49.4766 27.6679 49.6523 27.6328 49.8574 27.5976L49.875 27.9316C49.6406 27.9433 49.3477 27.9726 49.0312 27.9726ZM49.1016 26.8007L48.9023 26.5898L49.1777 26.3554C48.7266 26.3554 48.5449 26.3554 48.3867 26.3378L48.3164 26.0273C48.5566 26.0683 48.8027 26.0917 49.0488 26.0917C49.248 26.0917 49.4473 26.0859 49.6465 26.0566L49.7754 26.2851C49.5293 26.4492 49.2539 26.6777 49.1016 26.8007Z" fill="#3F3F3F"/>
<path d="M51.1699 28.119L51.0293 27.8319C51.1817 27.8378 51.5215 27.8554 51.7734 27.7089C51.8437 27.6679 52.0195 27.5565 52.0195 27.3046C52.0195 27.0761 51.8437 26.953 51.6152 26.953C51.2168 26.953 50.9297 27.2577 50.6719 27.5273L50.4258 27.3105C50.8184 26.9706 51.1406 26.6483 51.4688 26.244C51.293 26.2792 51.1465 26.3026 50.8594 26.3085L50.754 25.998C50.8125 26.0038 50.9121 26.0214 51.0469 26.0214C51.1875 26.0214 51.3633 25.998 51.5273 25.9687C51.6738 25.9394 51.7383 25.9218 51.8554 25.8749L52.0429 26.0976C51.8437 26.2792 51.6973 26.4198 51.3926 26.7773C51.4395 26.7655 51.5449 26.7245 51.6973 26.7245C52.0488 26.7245 52.3359 26.9589 52.3359 27.3456C52.33 28.0546 51.4922 28.0956 51.1699 28.119Z" fill="#3F3F3F"/>
<path d="M53.8711 28.0898C53.5488 28.0898 53.4082 28.0546 53.2734 27.9843C53.0801 27.8788 52.998 27.6913 52.998 27.5214C52.998 27.1816 53.2617 27.0117 53.5605 26.8359C53.4844 26.7538 53.4316 26.666 53.4023 26.5898C53.3672 26.5019 53.3496 26.4199 53.2617 25.9042L53.6074 25.8515C53.6074 26.0038 53.6133 26.291 53.6836 26.4902C53.7187 26.5956 53.7773 26.6367 53.8418 26.6718C54.1523 26.5253 54.1875 26.5078 54.5214 26.3495L54.621 26.6777C54.1933 26.7949 53.7949 26.9941 53.6191 27.1054C53.4961 27.1816 53.2969 27.3163 53.2969 27.498C53.2969 27.6913 53.5078 27.7851 53.7949 27.7851C54.0761 27.7851 54.3574 27.7324 54.6328 27.662V28.0077C54.4746 28.0488 54.2109 28.0898 53.8711 28.0898Z" fill="#3F3F3F"/>
<path d="M57.0527 27.5214L56.789 27.3515C56.9062 27.2167 56.9824 27.1171 57.1347 26.9062H56.6191V27.8027C56.6191 28.1425 56.5019 28.1542 56.0683 28.1601L55.9453 27.8378C55.9921 27.8495 56.1211 27.873 56.1972 27.873C56.2793 27.873 56.3027 27.8144 56.3027 27.7382V26.9062H55.3066V26.6132H56.291C56.1914 26.5605 56.1093 26.5136 55.9277 26.4433L56.0683 26.1855C56.1386 26.2206 56.2089 26.2558 56.4609 26.373C56.5195 26.3378 56.584 26.291 56.707 26.162H55.5351V25.8808H57.2754L57.3984 26.0331C57.2344 26.1562 57.041 26.3027 56.7246 26.5077C56.7363 26.5136 56.7832 26.537 56.7949 26.5429L56.7304 26.6132H57.4922L57.6094 26.7304C57.3164 27.1933 57.1816 27.3574 57.0527 27.5214Z" fill="#3F3F3F"/>
<path d="M60.5157 28.125H59.5782C59.4317 28.125 59.25 28.084 59.1211 28.0137C58.9453 27.9141 58.8575 27.7676 58.8047 27.6797C58.6992 27.9141 58.6231 28.0195 58.5235 28.1426L58.2422 28.0078C58.3418 27.9082 58.4239 27.8203 58.5293 27.5625C58.6407 27.3047 58.6641 27.123 58.6875 26.9648L58.9981 27.0117C59.0098 27.0117 59.0332 27.0234 59.0332 27.041C59.0332 27.0586 59.0039 27.0703 58.9805 27.0938C58.9688 27.1289 58.9512 27.2344 58.9336 27.3047C59.0157 27.6152 59.168 27.7207 59.3028 27.791V26.8125H58.6231V26.5547H60.2754V26.8125H59.6133V27.0938H60.293V27.3633H59.6133V27.8496C60.0235 27.8496 60.334 27.8262 60.6094 27.8027L60.5157 28.125ZM60.293 26.625V26.3496H58.5938V26.6309H58.3243V26.0801H59.2676V25.8398L59.625 25.8691C59.6367 25.8691 59.666 25.875 59.666 25.9043C59.666 25.9219 59.6309 25.9395 59.6016 25.957V26.0801H60.5508V26.6191H60.293V26.625Z" fill="#3F3F3F"/>
<path d="M62.5664 27.1582C62.5664 27.2637 62.5723 27.5977 62.5723 27.6914H62.2559C62.2618 27.5391 62.2676 27.4043 62.2676 27.2871C62.1621 27.3398 61.8809 27.4805 61.8809 27.668C61.8809 27.8438 62.0918 27.8789 62.2852 27.8789C62.5196 27.8789 62.7481 27.8438 62.9766 27.791V28.0957C62.7188 28.1367 62.42 28.1367 62.3321 28.1367C62.1797 28.1367 61.8692 28.1367 61.6934 27.9551C61.5879 27.8496 61.5879 27.7266 61.5879 27.6914C61.5879 27.3574 61.834 27.2285 62.2442 27.0176C62.2266 26.9355 62.1973 26.8418 62.0391 26.8418C61.7754 26.8418 61.6114 27.0879 61.4649 27.334L61.2012 27.1699C61.4121 26.9414 61.5528 26.748 61.7344 26.4258C61.5821 26.4316 61.4942 26.4375 61.3828 26.4375L61.3477 26.1562C61.5117 26.168 61.6289 26.1738 61.8633 26.168C61.9336 26.0215 61.9688 25.9277 61.9981 25.8105L62.3379 25.8691C62.3438 25.8691 62.3907 25.875 62.3907 25.8984C62.3907 25.916 62.3789 25.9219 62.3614 25.9277C62.3555 25.9277 62.3028 25.957 62.2969 25.957C62.2969 25.957 62.2266 26.1094 62.2149 26.1387C62.461 26.0977 62.584 26.0625 62.7481 25.998L62.7305 26.3027C62.4844 26.3613 62.2676 26.3848 62.086 26.4082C61.9981 26.5664 61.9805 26.6074 61.9336 26.6777C61.9688 26.6602 62.0508 26.6191 62.168 26.6191C62.3555 26.6191 62.4727 26.7129 62.5371 26.8945C62.8536 26.748 62.8887 26.7305 63.0176 26.6719L63.1114 26.9824C62.9004 27.0352 62.7657 27.082 62.5664 27.1582Z" fill="#3F3F3F"/>
<path d="M65.3203 27.955C65.1445 27.832 65.0273 27.7675 64.8222 27.6855C64.8105 27.9609 64.7461 28.0722 64.4003 28.0722C64.0253 28.0722 63.7968 27.9374 63.7968 27.7206C63.7968 27.6445 63.8261 27.3281 64.4355 27.3515H64.5117L64.5058 27.0937C64.4589 27.0937 64.3066 27.0995 64.2304 27.0995C63.9843 27.0995 63.8554 27.0117 63.8554 26.9062C63.8554 26.7714 64.037 26.6484 64.1425 26.5722L64.2949 26.707C64.248 26.7421 64.207 26.7714 64.207 26.8066C64.207 26.8417 64.2656 26.8417 64.3124 26.8417C64.4003 26.8417 64.4355 26.8417 64.5 26.8359L64.4941 26.496C64.1835 26.5078 64.0312 26.5195 63.7968 26.5488L63.7909 26.2558C64.1015 26.2558 64.248 26.2499 64.4882 26.2441L64.4824 25.8867L64.8105 25.9218C64.8633 25.9277 64.8808 25.9335 64.8808 25.957C64.8808 25.9687 64.875 25.9687 64.8457 25.9921C64.834 25.998 64.8164 26.0156 64.8105 26.039C64.8105 26.039 64.8105 26.0917 64.8047 26.2324C65.1504 26.2148 65.2442 26.2089 65.4961 26.1913L65.4844 26.4785C65.1855 26.4785 64.9336 26.4843 64.7988 26.4843V26.8066C65.0332 26.7773 65.1328 26.7597 65.3848 26.7128V27.0058C65.2676 27.0234 65.127 27.0468 64.8047 27.0761C64.8105 27.2109 64.8105 27.2402 64.8164 27.3984C65.0391 27.4628 65.2207 27.5273 65.502 27.7031L65.3203 27.955ZM64.3828 27.6035C64.207 27.6035 64.1191 27.6503 64.1191 27.7206C64.1191 27.8144 64.2949 27.8144 64.3242 27.8144C64.5 27.8144 64.5117 27.7675 64.5058 27.6152C64.4824 27.6035 64.4472 27.6035 64.3828 27.6035Z" fill="#3F3F3F"/>
<path d="M67.1016 28.0898C66.7793 28.0898 66.6386 28.0546 66.5039 27.9843C66.3105 27.8788 66.2285 27.6913 66.2285 27.5214C66.2285 27.1816 66.4921 27.0117 66.791 26.8359C66.7148 26.7538 66.6621 26.666 66.6328 26.5898C66.5976 26.5019 66.58 26.4199 66.4921 25.9042L66.8379 25.8515C66.8379 26.0038 66.8437 26.291 66.914 26.4902C66.9492 26.5956 67.0078 26.6367 67.0723 26.6718C67.3828 26.5253 67.418 26.5078 67.752 26.3495L67.8516 26.6777C67.4239 26.7949 67.0254 26.9941 66.8496 27.1054C66.7265 27.1816 66.5273 27.3163 66.5273 27.498C66.5273 27.6913 66.7383 27.7851 67.0254 27.7851C67.3067 27.7851 67.5879 27.7324 67.8633 27.662V28.0077C67.7051 28.0488 67.4414 28.0898 67.1016 28.0898Z" fill="#3F3F3F"/>
<path d="M70.377 27.8203C70.1543 28.0312 69.9375 28.0956 69.8145 28.1308L69.627 27.873C69.75 27.8495 69.9551 27.8027 70.1426 27.6328C70.3008 27.4804 70.3594 27.287 70.3594 27.1288C70.3594 26.8945 70.1836 26.6542 69.8555 26.6191C69.7735 26.8945 69.6973 27.123 69.5391 27.3984C69.5918 27.4804 69.6153 27.5214 69.6621 27.58L69.4395 27.8261C69.3985 27.7734 69.3692 27.7324 69.334 27.662C69.2578 27.7382 69.0645 27.9316 68.8887 27.9316C68.7012 27.9316 68.5489 27.7617 68.5489 27.4687C68.5489 27.041 68.8067 26.789 68.9121 26.6835C68.836 26.4667 68.795 26.332 68.7598 26.1855L69.0762 26.0566C69.0938 26.2206 69.1172 26.3261 69.1641 26.496C69.3223 26.414 69.4278 26.3788 69.6094 26.3495C69.6446 26.1386 69.6446 26.0273 69.6446 25.8808L69.961 25.9101C69.9844 25.9101 70.0489 25.916 70.0489 25.9511C70.0489 25.9628 70.0371 25.9687 70.0137 25.9863C70.0078 25.9921 69.9903 26.0038 69.9903 26.0156C69.9551 26.2031 69.9551 26.2265 69.9258 26.3437C70.043 26.3613 70.2364 26.3906 70.418 26.5429C70.6289 26.7187 70.6934 26.9648 70.6934 27.1523C70.6875 27.4804 70.5 27.7089 70.377 27.8203ZM69.0176 26.9648C68.8477 27.1933 68.836 27.3691 68.836 27.4335C68.836 27.5097 68.8711 27.5859 68.9414 27.5859C69.0528 27.5859 69.1641 27.4453 69.2051 27.3984C69.1465 27.2812 69.1055 27.1874 69.0176 26.9648ZM69.2578 26.7773C69.293 26.8828 69.334 26.9765 69.3926 27.0937C69.4629 26.9296 69.5039 26.8124 69.5508 26.6425C69.4512 26.666 69.3926 26.6894 69.2578 26.7773Z" fill="#3F3F3F"/>
<path d="M72.205 26.6249C72.0702 27.0761 71.9296 27.5097 71.6484 28.0663L71.3202 27.9667C71.4843 27.7031 71.6542 27.4101 71.871 26.6777C71.6542 26.707 71.5605 26.707 71.4667 26.7128L71.4433 26.4316C71.4726 26.4374 71.5312 26.4492 71.6601 26.4492C71.6952 26.4492 71.871 26.4492 71.9296 26.4316C71.9706 26.2499 72.0175 26.039 72.0233 25.8574L72.3573 25.9335C72.3632 25.9335 72.4276 25.9453 72.4276 25.9745C72.4276 25.9921 72.4218 26.0038 72.3925 26.0097C72.3573 26.0273 72.3515 26.0273 72.3456 26.0566C72.3222 26.1796 72.2987 26.2734 72.2812 26.3495C72.4394 26.3144 72.6034 26.2441 72.7089 26.1913V26.4902C72.6151 26.5253 72.5038 26.5663 72.205 26.6249ZM72.8905 28.0839C72.4042 28.0839 72.1933 27.9492 72.1933 27.6738C72.1933 27.662 72.1933 27.5742 72.2284 27.4804L72.498 27.539C72.4862 27.5917 72.4862 27.6328 72.4862 27.6386C72.4862 27.6738 72.4921 27.6972 72.5214 27.7206C72.5976 27.791 72.8026 27.791 72.8671 27.791C73.1191 27.791 73.2655 27.7499 73.3417 27.7324L73.371 28.0488C73.2245 28.0663 73.078 28.0839 72.8905 28.0839ZM72.9491 27.0058C72.7733 27.0058 72.6093 27.0292 72.5448 27.0351V26.7538C72.6855 26.7421 72.8202 26.7363 72.9667 26.7363C73.1542 26.7363 73.2421 26.7421 73.3241 26.7538V27.041C73.1132 27.0117 72.9901 27.0058 72.9491 27.0058Z" fill="#3F3F3F"/>
<path d="M74.2325 26.4199C74.2149 26.6249 74.1739 26.8124 74.1211 26.9882L73.8692 26.9179C73.9688 26.6191 73.9864 26.3671 73.9922 26.2851L74.2442 26.332C74.2969 26.3378 74.2969 26.3554 74.2969 26.3671C74.2969 26.4023 74.2676 26.414 74.2325 26.4199ZM74.7715 26.83V26.6132C74.7364 26.5488 74.7012 26.5019 74.6075 26.4023V28.1601H74.3086V25.8339L74.6485 25.8691C74.6661 25.8691 74.6954 25.8749 74.6954 25.9042C74.6954 25.9335 74.6719 25.9394 74.6602 25.9453C74.6368 25.957 74.6133 25.9687 74.6133 25.998V26.3261L74.7246 26.2148C74.8067 26.2792 74.9063 26.373 74.9707 26.4726L74.795 26.6132H75.375V26.5078H74.9825V26.3027H75.375V26.1913H74.8243V25.9863H75.375V25.8281L75.7032 25.8515C75.7149 25.8515 75.7383 25.8632 75.7383 25.8749C75.7383 25.8867 75.7266 25.8984 75.7207 25.9042C75.6856 25.9335 75.6797 25.9394 75.6797 25.9863H76.3067V26.1913H75.6797V26.2968H76.1309V26.5019H75.6797V26.6074H76.3184V26.83H74.7715ZM75.7325 28.1777L75.6036 27.8964C75.709 27.914 75.75 27.9199 75.7676 27.9199C75.8262 27.9199 75.8438 27.8906 75.8438 27.8495V27.7734H75.2051V28.1542H74.9121V26.9413H76.1485V27.9667C76.1426 28.1601 75.9551 28.1777 75.7325 28.1777ZM75.8438 27.1581H75.2051V27.2578H75.8438V27.1581ZM75.8438 27.4511H75.2051V27.5624H75.8438V27.4511Z" fill="#3F3F3F"/>
<path d="M77.9238 26.7305L78.0176 26.748C78.0351 26.748 78.0468 26.7598 78.0468 26.7773C78.0468 26.7949 78.0293 26.8066 77.9883 26.8242C77.9531 26.918 77.9297 26.9648 77.918 27H78.1347V27.2695H77.7129V27.4277H78.0937V27.6914H77.7129V28.1426H77.4316V27.6914H77.0449V27.4277H77.4316V27.2695H77.0098V27H77.2559C77.2149 26.8828 77.1914 26.8359 77.1504 26.7539L77.2207 26.7246H76.9629V26.4668H77.4375V26.2969H77.086V26.0566H77.4375V25.8398L77.748 25.8516C77.7715 25.8516 77.7832 25.8691 77.7832 25.8809C77.7832 25.8926 77.7773 25.9043 77.7656 25.9102C77.7363 25.9336 77.7246 25.9453 77.7246 25.957V26.0625H78.0996V26.3027H77.7246V26.4727H78.1875V26.7305H77.9238ZM77.4082 26.7305C77.4609 26.8359 77.4844 26.9004 77.502 26.959L77.3965 27.0059H77.6484C77.666 26.9648 77.6836 26.9063 77.7363 26.7305H77.4082ZM79.1542 28.1719C79.0429 28.0957 78.9784 28.0313 78.9023 27.9434C78.8495 28.0137 78.8144 28.0547 78.7324 28.1367L78.5273 27.9609V28.1484H78.2402V25.8809H79.248V26.4609C79.248 26.7012 79.1425 26.7715 78.9491 26.7715H78.8261L78.7089 26.502H78.8788C78.9198 26.502 78.9491 26.4785 78.9491 26.4316V26.1562H78.5273V26.8359H79.2069L79.3183 26.9766C79.2187 27.3398 79.1484 27.5039 79.0546 27.6855C79.1601 27.8086 79.2245 27.873 79.3593 27.9551L79.1542 28.1719ZM78.5273 27.1172V27.9375C78.6035 27.8672 78.6562 27.8145 78.7324 27.709C78.6386 27.5391 78.5976 27.416 78.5566 27.2637L78.7909 27.1289C78.8144 27.2344 78.8378 27.3047 78.8964 27.4219C78.9491 27.3047 78.9726 27.2227 79.0019 27.1113H78.5273V27.1172Z" fill="#3F3F3F"/>
<path d="M80.9707 27.6035C80.918 27.6093 80.9121 27.6093 80.9004 27.621C80.6367 27.914 80.3965 28.0663 80.2207 28.166L79.9571 27.9374C80.2442 27.7968 80.4727 27.6386 80.7071 27.3691L80.9649 27.5449C80.9766 27.5507 80.9883 27.5624 80.9883 27.58C80.9883 27.5917 80.9825 27.5976 80.9707 27.6035ZM79.9629 27.3398V27.041H80.5547V26.5839H80.1094V26.2968H80.5547V25.8574L80.8887 25.8808C80.9063 25.8808 80.9297 25.8867 80.9297 25.916C80.9297 25.9277 80.918 25.9394 80.9121 25.9453C80.9063 25.9511 80.8711 25.9921 80.8711 25.998V26.3027H81.3575V25.8632L81.6856 25.8808C81.709 25.8808 81.7325 25.8984 81.7325 25.9101C81.7325 25.9218 81.7207 25.9335 81.7149 25.9394C81.7149 25.9394 81.6797 25.9804 81.6797 25.9863V26.3027H82.1368V26.5898H81.6797V27.0468H82.2598V27.3456H79.9629V27.3398ZM81.3516 26.5839H80.8653V27.041H81.3516V26.5839ZM81.9434 28.166C81.7559 28.0488 81.5215 27.8788 81.2696 27.5917L81.4922 27.3691C81.6914 27.5742 81.8965 27.7441 82.2012 27.9199L81.9434 28.166Z" fill="#3F3F3F"/>
<path d="M83.959 26.3847C83.9121 26.4902 83.8828 26.5546 83.8418 26.6249H84.8731V27.8788C84.8731 28.1074 84.8203 28.1601 84.416 28.1601L84.3106 27.8671C84.3575 27.873 84.4278 27.8906 84.4864 27.8906C84.545 27.8906 84.5567 27.8788 84.5567 27.8144V27.6269H83.8125V28.1425H83.4961V27.0468C83.3555 27.1816 83.2442 27.2695 83.0918 27.3691L82.875 27.164C83.1328 27.0058 83.4258 26.8007 83.6426 26.3788H82.9395V26.1152H83.7422C83.7832 25.9687 83.795 25.8867 83.8067 25.7988L84.1114 25.8515C84.17 25.8632 84.1875 25.8749 84.1875 25.8925C84.1875 25.9218 84.1172 25.9394 84.0996 25.9453C84.0938 25.9863 84.0762 26.0449 84.0586 26.1093H85.2305V26.373H83.959V26.3847ZM84.5508 26.8828H83.8067V27.0292H84.5508V26.8828ZM84.5508 27.2519H83.8067V27.4042H84.5508V27.2519Z" fill="#3F3F3F"/>
<path d="M87.3692 27.1934L87.1172 26.9824C87.2871 26.8301 87.4688 26.6426 87.6094 26.3965H85.916V26.1035H87.7383C87.7735 26.1035 87.8145 26.0625 87.8321 26.0449L88.0781 26.2969C87.9492 26.4902 87.6621 26.9004 87.3692 27.1934ZM87.1289 26.5312C87.1231 26.5371 87.0938 26.5664 87.0879 26.5781C87.0821 26.584 87.0703 26.7715 87.0645 26.8066C86.9707 27.5801 86.5137 27.9199 86.3731 28.0254L86.086 27.8555C86.6543 27.4629 86.7832 27.0293 86.7598 26.4668L87.0762 26.4844C87.1348 26.4844 87.1406 26.4844 87.1406 26.5078C87.1465 26.5137 87.1406 26.5195 87.1289 26.5312Z" fill="#3F3F3F"/>
<path d="M90.4512 26.4785C90.3457 26.7539 90.2344 27.0586 89.9766 27.3925C89.6895 27.7675 89.3614 27.9492 89.1739 28.0547L88.8809 27.8144C89.0625 27.7324 89.4492 27.5508 89.7774 27.1054C89.9824 26.83 90.0645 26.584 90.1172 26.4433H88.6758V26.1328H90.2051C90.2403 26.1328 90.2696 26.1093 90.293 26.0918L90.5625 26.3379C90.5215 26.3672 90.4805 26.4082 90.4512 26.4785ZM90.6328 26.1738C90.4922 26.1738 90.3809 26.0566 90.3809 25.916C90.3809 25.7754 90.4922 25.6582 90.6328 25.6582C90.7735 25.6582 90.8848 25.7754 90.8848 25.916C90.8848 26.0566 90.7735 26.1738 90.6328 26.1738ZM90.6328 25.7578C90.5567 25.7578 90.4864 25.8222 90.4864 25.9101C90.4864 25.998 90.5567 26.0625 90.6328 26.0625C90.709 26.0625 90.7793 25.998 90.7793 25.9101C90.7793 25.8222 90.7149 25.7578 90.6328 25.7578Z" fill="#3F3F3F"/>
<path d="M91.8223 26.0215C91.7813 26.0508 91.7813 26.0566 91.7813 26.0625V27.2051H91.459V25.9277L91.7813 25.957C91.8047 25.957 91.8516 25.9629 91.8516 25.9863C91.8516 25.9922 91.834 26.0098 91.8223 26.0215ZM92.9473 25.998C92.9121 26.0332 92.9121 26.0391 92.9121 26.1152C92.9121 26.1387 92.9121 26.2617 92.9121 26.291C92.9121 26.8184 92.9063 27.0352 92.8184 27.293C92.6602 27.7734 92.3086 27.9727 92.0274 28.1133L91.793 27.8496C92.3496 27.6328 92.5782 27.375 92.5782 26.5547C92.5782 26.4902 92.5723 26.1152 92.5606 25.8984L92.9063 25.916C92.918 25.916 92.9766 25.916 92.9766 25.9512C92.9766 25.9687 92.9766 25.9805 92.9473 25.998Z" fill="#3F3F3F"/>
</g>
<defs>
<clipPath id="clip0_27_161">
<rect width="98.6074" height="30" fill="white"/>
</clipPath>
</defs>
</svg>
