<svg width="9" height="9" viewBox="0 0 9 9" fill="none" xmlns="http://www.w3.org/2000/svg">
<path d="M3.18383 3.96117L4.32335 4.84027L4.3392 4.84936L4.3463 4.85333C4.44485 4.90821 4.57529 4.87912 4.66227 4.78339L4.66986 4.77611L6.06648 3.12373C6.14601 3.03461 6.14732 2.90631 6.06996 2.83752C5.99242 2.76858 5.86528 2.78512 5.78608 2.87423L4.48058 4.26886L3.47269 3.567C3.37843 3.49756 3.23709 3.5298 3.15721 3.63875C3.07751 3.74738 3.08924 3.89189 3.18383 3.96117Z" fill="#FFA300"/>
<path d="M1.76504 4.49984C1.76504 4.43947 1.76636 4.37915 1.77274 4.31994H1.0574C1.05302 4.37913 1.05186 4.43947 1.05186 4.49984C1.05186 4.56134 1.05302 4.6207 1.0574 4.68004H1.77274C1.76636 4.6207 1.76504 4.56051 1.76504 4.49984Z" fill="#FFA300"/>
<path d="M3.03021 2.1937C3.09783 2.15088 3.16686 2.11053 3.23696 2.07466L3.26424 2.06142L2.90776 1.44241C2.81857 1.48737 2.73168 1.53729 2.64735 1.59203L3.004 2.21138L3.03021 2.1937Z" fill="#FFA300"/>
<path d="M1.44207 2.90813L2.06135 3.2646L2.21124 3.00453L1.59171 2.64789C1.53698 2.73221 1.48712 2.81885 1.44207 2.90813Z" fill="#FFA300"/>
<path d="M6.92489 5.76236C6.8877 5.83264 6.84859 5.90141 6.80459 5.96805L6.78675 5.99417L7.4062 6.35079C7.46101 6.26647 7.51093 6.18099 7.55706 6.09187L6.93919 5.73406L6.92489 5.76236Z" fill="#FFA300"/>
<path d="M2.07441 5.76119L2.0601 5.73407L1.44207 6.09055C1.48605 6.17967 1.53696 6.26647 1.5917 6.3508L2.21122 5.99417L2.19318 5.96805C2.15047 5.90139 2.11013 5.83263 2.07441 5.76119Z" fill="#FFA300"/>
<path d="M3.03021 6.80496L3.004 6.78712L2.64735 7.40662C2.73169 7.46136 2.81857 7.51244 2.90776 7.55758L3.26424 6.93823L3.23696 6.92502C3.16684 6.88928 3.09781 6.84894 3.03021 6.80496Z" fill="#FFA300"/>
<path d="M5.73365 2.06045L5.99398 2.21141L6.35053 1.59206C6.26628 1.53732 6.18048 1.4874 6.09161 1.44243L5.73365 2.06045Z" fill="#FFA300"/>
<path d="M4.31957 7.94119C4.37893 7.94646 4.4391 7.94762 4.49937 7.94762C4.55988 7.94762 4.62015 7.94646 4.67934 7.94119V7.21931H4.31957V7.94119Z" fill="#FFA300"/>
<path d="M4.67934 1.05882C4.62015 1.05351 4.55988 1.05237 4.49937 1.05237C4.4391 1.05237 4.37893 1.05351 4.31957 1.05882V1.78068H4.67934V1.05882Z" fill="#FFA300"/>
<path d="M5.73365 6.93939L6.09161 7.55758C6.18048 7.51112 6.26628 7.46135 6.35053 7.40662L5.99398 6.78711L5.73365 6.93939Z" fill="#FFA300"/>
<path d="M7.55706 2.90813C7.51185 2.81885 7.46099 2.73223 7.4062 2.64789L6.78675 3.00453L6.93794 3.2646L7.55706 2.90813Z" fill="#FFA300"/>
<path d="M7.94166 4.31994H7.21897V4.68005H7.94166C7.94612 4.6207 7.94713 4.56052 7.94713 4.49984C7.94711 4.43947 7.94612 4.37913 7.94166 4.31994Z" fill="#FFA300"/>
<path d="M4.49991 0C2.01447 0.000158203 0.000158203 2.01463 0 4.5C0.000158203 6.98537 2.01447 8.99982 4.49991 9C6.98535 8.99982 8.99967 6.98537 8.99982 4.5C8.99967 2.01463 6.98535 0.000158203 4.49991 0ZM4.49991 8.41932C3.41662 8.41915 2.43856 7.98117 1.72853 7.27139C1.01881 6.56111 0.580746 5.58311 0.580658 4.5C0.580746 3.41687 1.01881 2.43874 1.72851 1.72877C2.43856 1.01879 3.41662 0.580816 4.49991 0.580658C5.58304 0.580834 6.56109 1.01881 7.2713 1.72877C7.98101 2.43874 8.41908 3.4167 8.41915 4.5C8.41906 5.58311 7.981 6.56111 7.2713 7.27139C6.56109 7.98119 5.58304 8.41917 4.49991 8.41932Z" fill="#FFA300"/>
</svg>
